solid Extrude(Meshed)
 facet normal -1 0 0
  outer loop
   vertex 6 0.216837 0.500078
   vertex 6 0.110323 0.563701
   vertex 6 0.206194 0.591208
  endloop
 endfacet
 facet normal -1 0 0
  outer loop
   vertex 6 0.250017 0.096224
   vertex 6 0.173345 0.173971
   vertex 6 0.27944 0.199418
  endloop
 endfacet
 facet normal -1 0 0
  outer loop
   vertex 6 1.68717 0.887532
   vertex 6 1.7 1
   vertex 6 1.77768 0.885398
  endloop
 endfacet
 facet normal -1 0 0
  outer loop
   vertex 6 0.9 0
   vertex 6 0.8 0
   vertex 6 0.87062 0.105971
  endloop
 endfacet
 facet normal -1 0 0
  outer loop
   vertex 6 0.7 1
   vertex 6 0.8 1
   vertex 6 0.74701 0.890637
  endloop
 endfacet
 facet normal -1 0 -0
  outer loop
   vertex 6 0.69913 0.609877
   vertex 6 0.755942 0.521188
   vertex 6 0.655229 0.488642
  endloop
 endfacet
 facet normal -1 0 0
  outer loop
   vertex 6 1.9 0
   vertex 6 1.79946 0.08337
   vertex 6 1.91533 0.085344
  endloop
 endfacet
 facet normal -1 0 0
  outer loop
   vertex 6 0.87062 0.105971
   vertex 6 0.8 0
   vertex 6 0.782595 0.082281
  endloop
 endfacet
 facet normal -1 0 0
  outer loop
   vertex 6 1.74634 0.247768
   vertex 6 1.66715 0.311485
   vertex 6 1.76219 0.353808
  endloop
 endfacet
 facet normal -1 0 0
  outer loop
   vertex 6 1.02345 0.844439
   vertex 6 1.13615 0.89054
   vertex 6 1.09007 0.798379
  endloop
 endfacet
 facet normal -1 -0 0
  outer loop
   vertex 6 1.13615 0.89054
   vertex 6 1.02345 0.844439
   vertex 6 1.05 0.92799
  endloop
 endfacet
 facet normal -1 0 0
  outer loop
   vertex 6 1.0629 0.137706
   vertex 6 0.962403 0.186249
   vertex 6 1.05512 0.245084
  endloop
 endfacet
 facet normal -1 0 -0
  outer loop
   vertex 6 0.753448 0.374641
   vertex 6 0.825361 0.28027
   vertex 6 0.724947 0.266338
  endloop
 endfacet
 facet normal -1 0 0
  outer loop
   vertex 6 0.69913 0.609877
   vertex 6 0.655229 0.488642
   vertex 6 0.60704 0.561954
  endloop
 endfacet
 facet normal -1 -0 0
  outer loop
   vertex 6 0.336302 0.143003
   vertex 6 0.250017 0.096224
   vertex 6 0.27944 0.199418
  endloop
 endfacet
 facet normal -1 -0 0
  outer loop
   vertex 6 0.216837 0.500078
   vertex 6 0.106462 0.451791
   vertex 6 0.110323 0.563701
  endloop
 endfacet
 facet normal -1 0 0
  outer loop
   vertex 6 0.433131 0.097194
   vertex 6 0.336302 0.143003
   vertex 6 0.390407 0.204465
  endloop
 endfacet
 facet normal -1 0 0
  outer loop
   vertex 6 1.9 0
   vertex 6 1.8 0
   vertex 6 1.79946 0.08337
  endloop
 endfacet
 facet normal -1 0 0
  outer loop
   vertex 6 1.07335 0.418375
   vertex 6 1.14089 0.530714
   vertex 6 1.1845 0.459143
  endloop
 endfacet
 facet normal -1 0 0
  outer loop
   vertex 6 1.54102 0.530215
   vertex 6 1.4283 0.569513
   vertex 6 1.53783 0.608162
  endloop
 endfacet
 facet normal -1 -0 0
  outer loop
   vertex 6 1.54102 0.530215
   vertex 6 1.45149 0.492623
   vertex 6 1.4283 0.569513
  endloop
 endfacet
 facet normal -1 0 0
  outer loop
   vertex 6 0.753448 0.374641
   vertex 6 0.724947 0.266338
   vertex 6 0.682929 0.337488
  endloop
 endfacet
 facet normal -1 -0 0
  outer loop
   vertex 6 1.34791 0.727608
   vertex 6 1.25642 0.694846
   vertex 6 1.26213 0.776409
  endloop
 endfacet
 facet normal -1 0 -0
  outer loop
   vertex 6 0.78794 0.760605
   vertex 6 0.844931 0.673803
   vertex 6 0.76883 0.667796
  endloop
 endfacet
 facet normal -1 0 0
  outer loop
   vertex 6 1.04662 0.504687
   vertex 6 1.14089 0.530714
   vertex 6 1.07335 0.418375
  endloop
 endfacet
 facet normal -1 0 0
  outer loop
   vertex 6 0.921521 0.628833
   vertex 6 1.04586 0.606861
   vertex 6 0.979725 0.546526
  endloop
 endfacet
 facet normal -1 0 -0
  outer loop
   vertex 6 0.986509 0.697228
   vertex 6 1.04586 0.606861
   vertex 6 0.921521 0.628833
  endloop
 endfacet
 facet normal -1 0 -0
  outer loop
   vertex 6 0.634588 0.254857
   vertex 6 0.666272 0.182438
   vertex 6 0.554913 0.190987
  endloop
 endfacet
 facet normal -1 0 0
  outer loop
   vertex 6 1.8589 0.169658
   vertex 6 1.78274 0.17317
   vertex 6 1.82359 0.265437
  endloop
 endfacet
 facet normal -1 0 -0
  outer loop
   vertex 6 0.7 1
   vertex 6 0.74701 0.890637
   vertex 6 0.650505 0.93319
  endloop
 endfacet
 facet normal -1 -0 0
  outer loop
   vertex 6 1.9121 0.252998
   vertex 6 1.8589 0.169658
   vertex 6 1.82359 0.265437
  endloop
 endfacet
 facet normal -1 0 0
  outer loop
   vertex 6 1.7 0
   vertex 6 1.71253 0.131402
   vertex 6 1.79946 0.08337
  endloop
 endfacet
 facet normal -1 0 0
  outer loop
   vertex 6 1.25642 0.694846
   vertex 6 1.34791 0.727608
   vertex 6 1.32603 0.670489
  endloop
 endfacet
 facet normal -1 0 0
  outer loop
   vertex 6 1.4283 0.569513
   vertex 6 1.35161 0.470935
   vertex 6 1.31703 0.540601
  endloop
 endfacet
 facet normal -1 0 0
  outer loop
   vertex 6 0.9 0
   vertex 6 0.87062 0.105971
   vertex 6 0.975058 0.081637
  endloop
 endfacet
 facet normal -1 0 0
  outer loop
   vertex 6 1.77768 0.885398
   vertex 6 1.7757 0.775705
   vertex 6 1.70208 0.795371
  endloop
 endfacet
 facet normal -1 0 0
  outer loop
   vertex 6 0.844931 0.673803
   vertex 6 0.78794 0.760605
   vertex 6 0.888191 0.735809
  endloop
 endfacet
 facet normal -1 0 0
  outer loop
   vertex 6 0.549405 0.264872
   vertex 6 0.634588 0.254857
   vertex 6 0.554913 0.190987
  endloop
 endfacet
 facet normal -1 0 0
  outer loop
   vertex 6 1.7 1
   vertex 6 1.68717 0.887532
   vertex 6 1.62663 0.926166
  endloop
 endfacet
 facet normal -1 0 0
  outer loop
   vertex 6 0.433131 0.097194
   vertex 6 0.472907 0.196897
   vertex 6 0.541587 0.098626
  endloop
 endfacet
 facet normal -1 -0 0
  outer loop
   vertex 6 1.45149 0.492623
   vertex 6 1.35161 0.470935
   vertex 6 1.4283 0.569513
  endloop
 endfacet
 facet normal -1 0 0
  outer loop
   vertex 6 0.541587 0.098626
   vertex 6 0.472907 0.196897
   vertex 6 0.554913 0.190987
  endloop
 endfacet
 facet normal -1 0 0
  outer loop
   vertex 6 0.110323 0.563701
   vertex 6 0.154374 0.651622
   vertex 6 0.206194 0.591208
  endloop
 endfacet
 facet normal -1 0 0
  outer loop
   vertex 6 0.336302 0.143003
   vertex 6 0.433131 0.097194
   vertex 6 0.348409 0.067567
  endloop
 endfacet
 facet normal -1 0 0
  outer loop
   vertex 6 0.825361 0.28027
   vertex 6 0.9 0.3725
   vertex 6 0.945177 0.28693
  endloop
 endfacet
 facet normal -1 0 0
  outer loop
   vertex 6 1.34791 0.727608
   vertex 6 1.26213 0.776409
   vertex 6 1.37889 0.814256
  endloop
 endfacet
 facet normal -1 0 0
  outer loop
   vertex 6 0.962403 0.186249
   vertex 6 1.0629 0.137706
   vertex 6 0.975058 0.081637
  endloop
 endfacet
 facet normal -1 0 0
  outer loop
   vertex 6 1.74634 0.247768
   vertex 6 1.71253 0.131402
   vertex 6 1.66466 0.22385
  endloop
 endfacet
 facet normal -1 0 0
  outer loop
   vertex 6 1.71253 0.131402
   vertex 6 1.60268 0.167627
   vertex 6 1.66466 0.22385
  endloop
 endfacet
 facet normal -1 0 0
  outer loop
   vertex 6 0.27944 0.199418
   vertex 6 0.315103 0.303042
   vertex 6 0.390407 0.204465
  endloop
 endfacet
 facet normal -1 0 0
  outer loop
   vertex 6 0.4 1
   vertex 6 0.5 1
   vertex 6 0.458387 0.890788
  endloop
 endfacet
 facet normal -1 0 0
  outer loop
   vertex 6 0.315103 0.303042
   vertex 6 0.417323 0.283869
   vertex 6 0.390407 0.204465
  endloop
 endfacet
 facet normal -1 0 -0
  outer loop
   vertex 6 1.66715 0.311485
   vertex 6 1.74634 0.247768
   vertex 6 1.66466 0.22385
  endloop
 endfacet
 facet normal -1 0 -0
  outer loop
   vertex 6 1.50566 0.415077
   vertex 6 1.51236 0.308077
   vertex 6 1.42477 0.327458
  endloop
 endfacet
 facet normal -1 0 0
  outer loop
   vertex 6 1.41529 0.413727
   vertex 6 1.50566 0.415077
   vertex 6 1.42477 0.327458
  endloop
 endfacet
 facet normal -1 0 0
  outer loop
   vertex 6 1 0
   vertex 6 0.9 0
   vertex 6 0.975058 0.081637
  endloop
 endfacet
 facet normal -1 0 0
  outer loop
   vertex 6 1.77067 0.470236
   vertex 6 1.76219 0.353808
   vertex 6 1.67679 0.400315
  endloop
 endfacet
 facet normal -1 0 -0
  outer loop
   vertex 6 1.27915 0.302238
   vertex 6 1.32958 0.214045
   vertex 6 1.22409 0.225042
  endloop
 endfacet
 facet normal -1 0 0
  outer loop
   vertex 6 0.948195 0.898634
   vertex 6 1.02345 0.844439
   vertex 6 0.955326 0.7887
  endloop
 endfacet
 facet normal -1 0 0
  outer loop
   vertex 6 0.864815 0.825405
   vertex 6 0.948195 0.898634
   vertex 6 0.955326 0.7887
  endloop
 endfacet
 facet normal -1 0 0
  outer loop
   vertex 6 1.15913 0.390287
   vertex 6 1.07335 0.418375
   vertex 6 1.1845 0.459143
  endloop
 endfacet
 facet normal -1 0 0
  outer loop
   vertex 6 1.46 0.737856
   vertex 6 1.37889 0.814256
   vertex 6 1.48949 0.816579
  endloop
 endfacet
 facet normal -1 0 -0
  outer loop
   vertex 6 2 0.8
   vertex 6 2 0.7
   vertex 6 1.9195 0.745801
  endloop
 endfacet
 facet normal -1 -0 0
  outer loop
   vertex 6 0.787177 0.170237
   vertex 6 0.702823 0.108916
   vertex 6 0.666272 0.182438
  endloop
 endfacet
 facet normal -1 0 0
  outer loop
   vertex 6 0.986509 0.697228
   vertex 6 1.08902 0.715745
   vertex 6 1.04586 0.606861
  endloop
 endfacet
 facet normal -1 0 -0
  outer loop
   vertex 6 1.08902 0.715745
   vertex 6 1.14112 0.629034
   vertex 6 1.04586 0.606861
  endloop
 endfacet
 facet normal -1 0 0
  outer loop
   vertex 6 0.830922 0.456271
   vertex 6 0.753448 0.374641
   vertex 6 0.722941 0.443642
  endloop
 endfacet
 facet normal -1 0 -0
  outer loop
   vertex 6 1.68492 0.487878
   vertex 6 1.77067 0.470236
   vertex 6 1.67679 0.400315
  endloop
 endfacet
 facet normal -1 0 -0
  outer loop
   vertex 6 0.724947 0.266338
   vertex 6 0.787177 0.170237
   vertex 6 0.666272 0.182438
  endloop
 endfacet
 facet normal -1 -0 0
  outer loop
   vertex 6 0.74701 0.890637
   vertex 6 0.638254 0.852717
   vertex 6 0.650505 0.93319
  endloop
 endfacet
 facet normal -1 0 0
  outer loop
   vertex 6 1.71253 0.131402
   vertex 6 1.74634 0.247768
   vertex 6 1.78274 0.17317
  endloop
 endfacet
 facet normal -1 0 -0
  outer loop
   vertex 6 1.3 1
   vertex 6 1.35801 0.915677
   vertex 6 1.23648 0.919086
  endloop
 endfacet
 facet normal -1 0 0
  outer loop
   vertex 6 0.493712 0.343459
   vertex 6 0.563102 0.416438
   vertex 6 0.59461 0.33649
  endloop
 endfacet
 facet normal -1 0 0
  outer loop
   vertex 6 0 0.4
   vertex 6 0 0.5
   vertex 6 0.106462 0.451791
  endloop
 endfacet
 facet normal -1 -0 0
  outer loop
   vertex 6 1.46 0.737856
   vertex 6 1.34791 0.727608
   vertex 6 1.37889 0.814256
  endloop
 endfacet
 facet normal -1 0 0
  outer loop
   vertex 6 1.04586 0.606861
   vertex 6 1.14112 0.629034
   vertex 6 1.14089 0.530714
  endloop
 endfacet
 facet normal -1 0 0
  outer loop
   vertex 6 1.04662 0.504687
   vertex 6 1.04586 0.606861
   vertex 6 1.14089 0.530714
  endloop
 endfacet
 facet normal -1 0 0
  outer loop
   vertex 6 1.7757 0.775705
   vertex 6 1.77768 0.885398
   vertex 6 1.8502 0.806801
  endloop
 endfacet
 facet normal -1 0 0
  outer loop
   vertex 6 0.106462 0.451791
   vertex 6 0 0.5
   vertex 6 0.110323 0.563701
  endloop
 endfacet
 facet normal -1 0 0
  outer loop
   vertex 6 1.68717 0.887532
   vertex 6 1.77768 0.885398
   vertex 6 1.70208 0.795371
  endloop
 endfacet
 facet normal -1 0 -0
  outer loop
   vertex 6 0.4 1
   vertex 6 0.458387 0.890788
   vertex 6 0.353695 0.92855
  endloop
 endfacet
 facet normal -1 0 0
  outer loop
   vertex 6 1.71253 0.131402
   vertex 6 1.7 0
   vertex 6 1.63218 0.077121
  endloop
 endfacet
 facet normal -1 0 0
  outer loop
   vertex 6 0.544519 0.503153
   vertex 6 0.655229 0.488642
   vertex 6 0.563102 0.416438
  endloop
 endfacet
 facet normal -1 0 0
  outer loop
   vertex 6 0.655229 0.488642
   vertex 6 0.643924 0.401826
   vertex 6 0.563102 0.416438
  endloop
 endfacet
 facet normal -1 0 0
  outer loop
   vertex 6 1.5631 0.786155
   vertex 6 1.648 0.738679
   vertex 6 1.56909 0.690036
  endloop
 endfacet
 facet normal -1 0 0
  outer loop
   vertex 6 1.53758 0.894313
   vertex 6 1.62663 0.926166
   vertex 6 1.62743 0.838036
  endloop
 endfacet
 facet normal -1 0 0
  outer loop
   vertex 6 0.825361 0.28027
   vertex 6 0.945177 0.28693
   vertex 6 0.875264 0.206451
  endloop
 endfacet
 facet normal -1 -0 0
  outer loop
   vertex 6 1.3433 0.366023
   vertex 6 1.27915 0.302238
   vertex 6 1.25071 0.402475
  endloop
 endfacet
 facet normal -1 0 0
  outer loop
   vertex 6 1.74415 0.685739
   vertex 6 1.648 0.738679
   vertex 6 1.70208 0.795371
  endloop
 endfacet
 facet normal -1 -0 0
  outer loop
   vertex 6 1.7757 0.775705
   vertex 6 1.74415 0.685739
   vertex 6 1.70208 0.795371
  endloop
 endfacet
 facet normal -1 0 0
  outer loop
   vertex 6 1.24325 0.608634
   vertex 6 1.14112 0.629034
   vertex 6 1.17449 0.705834
  endloop
 endfacet
 facet normal -1 -0 0
  outer loop
   vertex 6 1.25642 0.694846
   vertex 6 1.24325 0.608634
   vertex 6 1.17449 0.705834
  endloop
 endfacet
 facet normal -1 0 0
  outer loop
   vertex 6 1.60268 0.167627
   vertex 6 1.71253 0.131402
   vertex 6 1.63218 0.077121
  endloop
 endfacet
 facet normal -1 0 0
  outer loop
   vertex 6 0.948195 0.898634
   vertex 6 1 1
   vertex 6 1.05 0.92799
  endloop
 endfacet
 facet normal -1 0 0
  outer loop
   vertex 6 1.87406 0.510267
   vertex 6 2 0.5
   vertex 6 1.91572 0.42198
  endloop
 endfacet
 facet normal -1 -0 0
  outer loop
   vertex 6 0.986509 0.697228
   vertex 6 0.921521 0.628833
   vertex 6 0.888191 0.735809
  endloop
 endfacet
 facet normal -1 0 0
  outer loop
   vertex 6 1.35161 0.470935
   vertex 6 1.3433 0.366023
   vertex 6 1.25071 0.402475
  endloop
 endfacet
 facet normal -1 0 0
  outer loop
   vertex 6 1.25008 0.498801
   vertex 6 1.35161 0.470935
   vertex 6 1.25071 0.402475
  endloop
 endfacet
 facet normal -1 -0 0
  outer loop
   vertex 6 0.472907 0.196897
   vertex 6 0.433131 0.097194
   vertex 6 0.390407 0.204465
  endloop
 endfacet
 facet normal -1 0 0
  outer loop
   vertex 6 0.753448 0.374641
   vertex 6 0.830922 0.456271
   vertex 6 0.826463 0.355695
  endloop
 endfacet
 facet normal -1 0 0
  outer loop
   vertex 6 0.493712 0.343459
   vertex 6 0.381716 0.371934
   vertex 6 0.468476 0.438883
  endloop
 endfacet
 facet normal -1 0 0
  outer loop
   vertex 6 1.8 0
   vertex 6 1.7 0
   vertex 6 1.79946 0.08337
  endloop
 endfacet
 facet normal -1 0 0
  outer loop
   vertex 6 1.7 1
   vertex 6 1.8 1
   vertex 6 1.77768 0.885398
  endloop
 endfacet
 facet normal -1 0 0
  outer loop
   vertex 6 0.864815 0.825405
   vertex 6 0.74701 0.890637
   vertex 6 0.852004 0.922935
  endloop
 endfacet
 facet normal -1 0 0
  outer loop
   vertex 6 1.45149 0.492623
   vertex 6 1.54102 0.530215
   vertex 6 1.50566 0.415077
  endloop
 endfacet
 facet normal -1 0 -0
  outer loop
   vertex 6 1.54102 0.530215
   vertex 6 1.60863 0.455746
   vertex 6 1.50566 0.415077
  endloop
 endfacet
 facet normal -1 -0 0
  outer loop
   vertex 6 1.83608 0.616681
   vertex 6 1.72478 0.575405
   vertex 6 1.74415 0.685739
  endloop
 endfacet
 facet normal -1 0 0
  outer loop
   vertex 6 0.830922 0.456271
   vertex 6 0.755942 0.521188
   vertex 6 0.821189 0.584433
  endloop
 endfacet
 facet normal -1 -0 0
  outer loop
   vertex 6 0.906444 0.536086
   vertex 6 0.830922 0.456271
   vertex 6 0.821189 0.584433
  endloop
 endfacet
 facet normal -1 0 0
  outer loop
   vertex 6 0.312814 0.683602
   vertex 6 0.305729 0.579083
   vertex 6 0.242333 0.654537
  endloop
 endfacet
 facet normal -1 0 0
  outer loop
   vertex 6 1.648 0.738679
   vertex 6 1.5631 0.786155
   vertex 6 1.62743 0.838036
  endloop
 endfacet
 facet normal -1 -0 0
  outer loop
   vertex 6 1.35801 0.915677
   vertex 6 1.29598 0.855658
   vertex 6 1.23648 0.919086
  endloop
 endfacet
 facet normal -1 0 0
  outer loop
   vertex 6 1.0629 0.137706
   vertex 6 1.05512 0.245084
   vertex 6 1.14001 0.18148
  endloop
 endfacet
 facet normal -1 0 0
  outer loop
   vertex 6 0.099566 0.745659
   vertex 6 0.171462 0.830532
   vertex 6 0.225945 0.733479
  endloop
 endfacet
 facet normal -1 0 0
  outer loop
   vertex 6 0.154374 0.651622
   vertex 6 0.099566 0.745659
   vertex 6 0.225945 0.733479
  endloop
 endfacet
 facet normal -1 0 0
  outer loop
   vertex 6 0.099566 0.254341
   vertex 6 0.154021 0.35001
   vertex 6 0.211467 0.275803
  endloop
 endfacet
 facet normal -1 0 0
  outer loop
   vertex 6 0.173345 0.173971
   vertex 6 0.099566 0.254341
   vertex 6 0.211467 0.275803
  endloop
 endfacet
 facet normal -1 0 -0
  outer loop
   vertex 6 1.34355 0.604404
   vertex 6 1.4283 0.569513
   vertex 6 1.31703 0.540601
  endloop
 endfacet
 facet normal -1 0 0
  outer loop
   vertex 6 1.5631 0.786155
   vertex 6 1.53758 0.894313
   vertex 6 1.62743 0.838036
  endloop
 endfacet
 facet normal -1 0 0
  outer loop
   vertex 6 1.22409 0.225042
   vertex 6 1.32958 0.214045
   vertex 6 1.28516 0.150098
  endloop
 endfacet
 facet normal -1 0 0
  outer loop
   vertex 6 0.755942 0.521188
   vertex 6 0.69913 0.609877
   vertex 6 0.821189 0.584433
  endloop
 endfacet
 facet normal -1 0 0
  outer loop
   vertex 6 0.563102 0.416438
   vertex 6 0.643924 0.401826
   vertex 6 0.59461 0.33649
  endloop
 endfacet
 facet normal -1 0 0
  outer loop
   vertex 6 0.682929 0.337488
   vertex 6 0.643924 0.401826
   vertex 6 0.722941 0.443642
  endloop
 endfacet
 facet normal -1 0 0
  outer loop
   vertex 6 0.74701 0.890637
   vertex 6 0.864815 0.825405
   vertex 6 0.78794 0.760605
  endloop
 endfacet
 facet normal -1 0 0
  outer loop
   vertex 6 1.1 1
   vertex 6 1.2 1
   vertex 6 1.13615 0.89054
  endloop
 endfacet
 facet normal -1 0 0
  outer loop
   vertex 6 0 0.4
   vertex 6 0.106462 0.451791
   vertex 6 0.070947 0.350877
  endloop
 endfacet
 facet normal -1 0 0
  outer loop
   vertex 6 0.9 1
   vertex 6 1 1
   vertex 6 0.948195 0.898634
  endloop
 endfacet
 facet normal -1 0 -0
  outer loop
   vertex 6 2 0.3
   vertex 6 2 0.2
   vertex 6 1.9121 0.252998
  endloop
 endfacet
 facet normal -1 0 0
  outer loop
   vertex 6 0.74701 0.890637
   vertex 6 0.8 1
   vertex 6 0.852004 0.922935
  endloop
 endfacet
 facet normal -1 0 0
  outer loop
   vertex 6 0.638254 0.852717
   vertex 6 0.74701 0.890637
   vertex 6 0.69899 0.799708
  endloop
 endfacet
 facet normal -1 -0 0
  outer loop
   vertex 6 0.458387 0.890788
   vertex 6 0.35 0.847072
   vertex 6 0.353695 0.92855
  endloop
 endfacet
 facet normal -1 0 0
  outer loop
   vertex 6 0.499346 0.780967
   vertex 6 0.458387 0.890788
   vertex 6 0.562982 0.833958
  endloop
 endfacet
 facet normal -1 0 0
  outer loop
   vertex 6 0 0.2
   vertex 6 0 0.3
   vertex 6 0.099566 0.254341
  endloop
 endfacet
 facet normal -1 0 0
  outer loop
   vertex 6 0 0.7
   vertex 6 0 0.8
   vertex 6 0.099566 0.745659
  endloop
 endfacet
 facet normal -1 0 0
  outer loop
   vertex 6 0.2 1
   vertex 6 0.3 1
   vertex 6 0.260086 0.904891
  endloop
 endfacet
 facet normal -1 0 0
  outer loop
   vertex 6 0.458387 0.890788
   vertex 6 0.5 1
   vertex 6 0.56827 0.918762
  endloop
 endfacet
 facet normal -1 0 0
  outer loop
   vertex 6 1.4283 0.569513
   vertex 6 1.48275 0.658752
   vertex 6 1.53783 0.608162
  endloop
 endfacet
 facet normal -1 0 0
  outer loop
   vertex 6 0.9 0.3725
   vertex 6 0.830922 0.456271
   vertex 6 0.959629 0.45927
  endloop
 endfacet
 facet normal -1 0 0
  outer loop
   vertex 6 0.830922 0.456271
   vertex 6 0.906444 0.536086
   vertex 6 0.959629 0.45927
  endloop
 endfacet
 facet normal -1 -0 0
  outer loop
   vertex 6 0.305729 0.579083
   vertex 6 0.216837 0.500078
   vertex 6 0.206194 0.591208
  endloop
 endfacet
 facet normal -1 0 0
  outer loop
   vertex 6 0.709794 0.722092
   vertex 6 0.78794 0.760605
   vertex 6 0.76883 0.667796
  endloop
 endfacet
 facet normal -1 0 0
  outer loop
   vertex 6 1.76219 0.353808
   vertex 6 1.86063 0.345336
   vertex 6 1.82359 0.265437
  endloop
 endfacet
 facet normal -1 0 0
  outer loop
   vertex 6 0.312814 0.683602
   vertex 6 0.395906 0.748801
   vertex 6 0.385751 0.650188
  endloop
 endfacet
 facet normal -1 0 0
  outer loop
   vertex 6 1.79946 0.08337
   vertex 6 1.8589 0.169658
   vertex 6 1.91533 0.085344
  endloop
 endfacet
 facet normal -1 0 0
  outer loop
   vertex 6 0 0.5
   vertex 6 0 0.6
   vertex 6 0.110323 0.563701
  endloop
 endfacet
 facet normal -1 -0 0
  outer loop
   vertex 6 0.493712 0.343459
   vertex 6 0.417323 0.283869
   vertex 6 0.381716 0.371934
  endloop
 endfacet
 facet normal -1 0 0
  outer loop
   vertex 6 1.9195 0.745801
   vertex 6 2 0.7
   vertex 6 1.91989 0.655048
  endloop
 endfacet
 facet normal -1 0 0
  outer loop
   vertex 6 0.305729 0.579083
   vertex 6 0.312814 0.683602
   vertex 6 0.385751 0.650188
  endloop
 endfacet
 facet normal -1 0 0
  outer loop
   vertex 6 0.959629 0.45927
   vertex 6 1.04662 0.504687
   vertex 6 1.07335 0.418375
  endloop
 endfacet
 facet normal -1 0 0
  outer loop
   vertex 6 0.216837 0.500078
   vertex 6 0.305729 0.579083
   vertex 6 0.310683 0.495364
  endloop
 endfacet
 facet normal -1 0 0
  outer loop
   vertex 6 0.549405 0.264872
   vertex 6 0.493712 0.343459
   vertex 6 0.59461 0.33649
  endloop
 endfacet
 facet normal -1 0 0
  outer loop
   vertex 6 1.14089 0.530714
   vertex 6 1.14112 0.629034
   vertex 6 1.24325 0.608634
  endloop
 endfacet
 facet normal -1 0 0
  outer loop
   vertex 6 1.25008 0.498801
   vertex 6 1.14089 0.530714
   vertex 6 1.24325 0.608634
  endloop
 endfacet
 facet normal -1 0 0
  outer loop
   vertex 6 1.43868 0.870006
   vertex 6 1.53758 0.894313
   vertex 6 1.48949 0.816579
  endloop
 endfacet
 facet normal -1 0 -0
  outer loop
   vertex 6 0.755942 0.521188
   vertex 6 0.830922 0.456271
   vertex 6 0.722941 0.443642
  endloop
 endfacet
 facet normal -1 0 -0
  outer loop
   vertex 6 0.106462 0.451791
   vertex 6 0.154021 0.35001
   vertex 6 0.070947 0.350877
  endloop
 endfacet
 facet normal -1 0 0
  outer loop
   vertex 6 1.74634 0.247768
   vertex 6 1.76219 0.353808
   vertex 6 1.82359 0.265437
  endloop
 endfacet
 facet normal -1 0 -0
  outer loop
   vertex 6 1.13615 0.89054
   vertex 6 1.17045 0.78839
   vertex 6 1.09007 0.798379
  endloop
 endfacet
 facet normal -1 0 0
  outer loop
   vertex 6 0.959629 0.45927
   vertex 6 1.07335 0.418375
   vertex 6 0.976852 0.379615
  endloop
 endfacet
 facet normal -1 0 0
  outer loop
   vertex 6 1.2 0
   vertex 6 1.14908 0.07881
   vertex 6 1.24913 0.073999
  endloop
 endfacet
 facet normal -1 -0 0
  outer loop
   vertex 6 1.53758 0.894313
   vertex 6 1.43868 0.870006
   vertex 6 1.45 0.941846
  endloop
 endfacet
 facet normal -1 -0 0
  outer loop
   vertex 6 0.666272 0.182438
   vertex 6 0.602895 0.134916
   vertex 6 0.554913 0.190987
  endloop
 endfacet
 facet normal -1 0 0
  outer loop
   vertex 6 0.3 0
   vertex 6 0.2 0
   vertex 6 0.250017 0.096224
  endloop
 endfacet
 facet normal -1 0 0
  outer loop
   vertex 6 1.02345 0.844439
   vertex 6 0.948195 0.898634
   vertex 6 1.05 0.92799
  endloop
 endfacet
 facet normal -1 0 0
  outer loop
   vertex 6 0.821189 0.584433
   vertex 6 0.69913 0.609877
   vertex 6 0.76883 0.667796
  endloop
 endfacet
 facet normal -1 0 0
  outer loop
   vertex 6 0.9 0.3725
   vertex 6 0.825361 0.28027
   vertex 6 0.826463 0.355695
  endloop
 endfacet
 facet normal -1 0 0
  outer loop
   vertex 6 0.825361 0.28027
   vertex 6 0.753448 0.374641
   vertex 6 0.826463 0.355695
  endloop
 endfacet
 facet normal -1 -0 0
  outer loop
   vertex 6 2 0.8
   vertex 6 1.9195 0.745801
   vertex 6 1.92487 0.841765
  endloop
 endfacet
 facet normal -1 -0 0
  outer loop
   vertex 6 2 0.3
   vertex 6 1.9121 0.252998
   vertex 6 1.93943 0.35
  endloop
 endfacet
 facet normal -1 0 0
  outer loop
   vertex 6 1.4 0
   vertex 6 1.3 0
   vertex 6 1.34913 0.073759
  endloop
 endfacet
 facet normal -1 0 0
  outer loop
   vertex 6 0.7 0
   vertex 6 0.702823 0.108916
   vertex 6 0.782595 0.082281
  endloop
 endfacet
 facet normal -1 0 0
  outer loop
   vertex 6 1.27915 0.302238
   vertex 6 1.3433 0.366023
   vertex 6 1.36102 0.289119
  endloop
 endfacet
 facet normal -1 0 0
  outer loop
   vertex 6 1.32958 0.214045
   vertex 6 1.27915 0.302238
   vertex 6 1.36102 0.289119
  endloop
 endfacet
 facet normal -1 0 0
  outer loop
   vertex 6 0.3 0
   vertex 6 0.250017 0.096224
   vertex 6 0.348409 0.067567
  endloop
 endfacet
 facet normal -1 0 0
  outer loop
   vertex 6 0.385751 0.650188
   vertex 6 0.395906 0.748801
   vertex 6 0.454986 0.702676
  endloop
 endfacet
 facet normal -1 0 -0
  outer loop
   vertex 6 2 0.5
   vertex 6 2 0.4
   vertex 6 1.91572 0.42198
  endloop
 endfacet
 facet normal -1 0 0
  outer loop
   vertex 6 0.605724 0.743282
   vertex 6 0.638254 0.852717
   vertex 6 0.69899 0.799708
  endloop
 endfacet
 facet normal -1 0 0
  outer loop
   vertex 6 1.77067 0.470236
   vertex 6 1.87406 0.510267
   vertex 6 1.83513 0.415927
  endloop
 endfacet
 facet normal -1 0 0
  outer loop
   vertex 6 0.643924 0.401826
   vertex 6 0.655229 0.488642
   vertex 6 0.722941 0.443642
  endloop
 endfacet
 facet normal -1 0 -0
  outer loop
   vertex 6 0.955326 0.7887
   vertex 6 0.986509 0.697228
   vertex 6 0.888191 0.735809
  endloop
 endfacet
 facet normal -1 0 0
  outer loop
   vertex 6 1.61612 0.612505
   vertex 6 1.72478 0.575405
   vertex 6 1.63273 0.53529
  endloop
 endfacet
 facet normal -1 0 0
  outer loop
   vertex 6 1.77768 0.885398
   vertex 6 1.86375 0.878471
   vertex 6 1.8502 0.806801
  endloop
 endfacet
 facet normal -1 0 0
  outer loop
   vertex 6 1.46192 0.136255
   vertex 6 1.42831 0.23583
   vertex 6 1.52752 0.227863
  endloop
 endfacet
 facet normal -1 0 -0
  outer loop
   vertex 6 1.46 0.737856
   vertex 6 1.48275 0.658752
   vertex 6 1.39809 0.661437
  endloop
 endfacet
 facet normal -1 0 0
  outer loop
   vertex 6 1.26213 0.776409
   vertex 6 1.29598 0.855658
   vertex 6 1.37889 0.814256
  endloop
 endfacet
 facet normal -1 0 0
  outer loop
   vertex 6 0.5 0
   vertex 6 0.4 0
   vertex 6 0.433131 0.097194
  endloop
 endfacet
 facet normal -1 0 0
  outer loop
   vertex 6 1.37889 0.814256
   vertex 6 1.43868 0.870006
   vertex 6 1.48949 0.816579
  endloop
 endfacet
 facet normal -1 0 -0
  outer loop
   vertex 6 1.72478 0.575405
   vertex 6 1.77067 0.470236
   vertex 6 1.68492 0.487878
  endloop
 endfacet
 facet normal -1 0 0
  outer loop
   vertex 6 1.05512 0.245084
   vertex 6 1.13745 0.260912
   vertex 6 1.14001 0.18148
  endloop
 endfacet
 facet normal -1 0 0
  outer loop
   vertex 6 1.34791 0.727608
   vertex 6 1.46 0.737856
   vertex 6 1.39809 0.661437
  endloop
 endfacet
 facet normal -1 0 0
  outer loop
   vertex 6 0.458387 0.890788
   vertex 6 0.56827 0.918762
   vertex 6 0.562982 0.833958
  endloop
 endfacet
 facet normal -1 0 0
  outer loop
   vertex 6 0.60012 0.63459
   vertex 6 0.69913 0.609877
   vertex 6 0.60704 0.561954
  endloop
 endfacet
 facet normal -1 0 -0
  outer loop
   vertex 6 2 0.1
   vertex 6 2 0
   vertex 6 1.91533 0.085344
  endloop
 endfacet
 facet normal -1 0 0
  outer loop
   vertex 6 2 0
   vertex 6 1.9 0
   vertex 6 1.91533 0.085344
  endloop
 endfacet
 facet normal -1 0 0
  outer loop
   vertex 6 1.72478 0.575405
   vertex 6 1.61612 0.612505
   vertex 6 1.67562 0.659706
  endloop
 endfacet
 facet normal -1 0 0
  outer loop
   vertex 6 1.9121 0.252998
   vertex 6 1.86063 0.345336
   vertex 6 1.93943 0.35
  endloop
 endfacet
 facet normal -1 0 0
  outer loop
   vertex 6 0.825361 0.28027
   vertex 6 0.787177 0.170237
   vertex 6 0.724947 0.266338
  endloop
 endfacet
 facet normal -1 0 0
  outer loop
   vertex 6 1.72478 0.575405
   vertex 6 1.83608 0.616681
   vertex 6 1.8014 0.543147
  endloop
 endfacet
 facet normal -1 0 0
  outer loop
   vertex 6 1.77067 0.470236
   vertex 6 1.72478 0.575405
   vertex 6 1.8014 0.543147
  endloop
 endfacet
 facet normal -1 0 0
  outer loop
   vertex 6 0.8 0
   vertex 6 0.7 0
   vertex 6 0.782595 0.082281
  endloop
 endfacet
 facet normal -1 0 0
  outer loop
   vertex 6 1.51236 0.308077
   vertex 6 1.58931 0.362062
   vertex 6 1.59462 0.26097
  endloop
 endfacet
 facet normal -1 0 0
  outer loop
   vertex 6 0.787177 0.170237
   vertex 6 0.825361 0.28027
   vertex 6 0.875264 0.206451
  endloop
 endfacet
 facet normal -1 0 0
  outer loop
   vertex 6 0.173345 0.173971
   vertex 6 0.211467 0.275803
   vertex 6 0.27944 0.199418
  endloop
 endfacet
 facet normal -1 -0 0
  outer loop
   vertex 6 0.753448 0.374641
   vertex 6 0.682929 0.337488
   vertex 6 0.722941 0.443642
  endloop
 endfacet
 facet normal -1 0 0
  outer loop
   vertex 6 0.312814 0.683602
   vertex 6 0.225945 0.733479
   vertex 6 0.319715 0.763034
  endloop
 endfacet
 facet normal -1 0 -0
  outer loop
   vertex 6 1.1 1
   vertex 6 1.13615 0.89054
   vertex 6 1.05 0.92799
  endloop
 endfacet
 facet normal -1 0 0
  outer loop
   vertex 6 0.315103 0.303042
   vertex 6 0.286287 0.414675
   vertex 6 0.381716 0.371934
  endloop
 endfacet
 facet normal -1 0 0
  outer loop
   vertex 6 0.286287 0.414675
   vertex 6 0.381533 0.465026
   vertex 6 0.381716 0.371934
  endloop
 endfacet
 facet normal -1 0 0
  outer loop
   vertex 6 0.381716 0.371934
   vertex 6 0.381533 0.465026
   vertex 6 0.468476 0.438883
  endloop
 endfacet
 facet normal -1 0 0
  outer loop
   vertex 6 1.14908 0.07881
   vertex 6 1.21143 0.141325
   vertex 6 1.24913 0.073999
  endloop
 endfacet
 facet normal -1 0 0
  outer loop
   vertex 6 0.225945 0.733479
   vertex 6 0.26738 0.815258
   vertex 6 0.319715 0.763034
  endloop
 endfacet
 facet normal -1 0 0
  outer loop
   vertex 6 0.35 0.847072
   vertex 6 0.458387 0.890788
   vertex 6 0.42591 0.816907
  endloop
 endfacet
 facet normal -1 0 0
  outer loop
   vertex 6 0.106462 0.451791
   vertex 6 0.216837 0.500078
   vertex 6 0.200543 0.416233
  endloop
 endfacet
 facet normal -1 0 0
  outer loop
   vertex 6 0.154021 0.35001
   vertex 6 0.106462 0.451791
   vertex 6 0.200543 0.416233
  endloop
 endfacet
 facet normal -1 0 0
  outer loop
   vertex 6 0.87062 0.105971
   vertex 6 0.962403 0.186249
   vertex 6 0.975058 0.081637
  endloop
 endfacet
 facet normal -1 0 0
  outer loop
   vertex 6 1.5 1
   vertex 6 1.6 1
   vertex 6 1.53758 0.894313
  endloop
 endfacet
 facet normal -1 0 0
  outer loop
   vertex 6 0.709794 0.722092
   vertex 6 0.605724 0.743282
   vertex 6 0.69899 0.799708
  endloop
 endfacet
 facet normal -1 0 0
  outer loop
   vertex 6 0.250017 0.096224
   vertex 6 0.336302 0.143003
   vertex 6 0.348409 0.067567
  endloop
 endfacet
 facet normal -1 0 0
  outer loop
   vertex 6 1.86063 0.345336
   vertex 6 1.76219 0.353808
   vertex 6 1.83513 0.415927
  endloop
 endfacet
 facet normal -1 0 0
  outer loop
   vertex 6 0.305729 0.579083
   vertex 6 0.206194 0.591208
   vertex 6 0.242333 0.654537
  endloop
 endfacet
 facet normal -1 0 0
  outer loop
   vertex 6 1.87406 0.510267
   vertex 6 1.83608 0.616681
   vertex 6 1.92998 0.576359
  endloop
 endfacet
 facet normal -1 0 0
  outer loop
   vertex 6 1.46 0.737856
   vertex 6 1.5631 0.786155
   vertex 6 1.56909 0.690036
  endloop
 endfacet
 facet normal -1 0 0
  outer loop
   vertex 6 2 0.5
   vertex 6 1.87406 0.510267
   vertex 6 1.92998 0.576359
  endloop
 endfacet
 facet normal -1 0 -0
  outer loop
   vertex 6 1.9195 0.745801
   vertex 6 1.91989 0.655048
   vertex 6 1.83967 0.713666
  endloop
 endfacet
 facet normal -1 0 0
  outer loop
   vertex 6 1.48275 0.658752
   vertex 6 1.46 0.737856
   vertex 6 1.56909 0.690036
  endloop
 endfacet
 facet normal -1 0 -0
  outer loop
   vertex 6 0.787177 0.170237
   vertex 6 0.87062 0.105971
   vertex 6 0.782595 0.082281
  endloop
 endfacet
 facet normal -1 -0 0
  outer loop
   vertex 6 0.724947 0.266338
   vertex 6 0.634588 0.254857
   vertex 6 0.682929 0.337488
  endloop
 endfacet
 facet normal -1 0 0
  outer loop
   vertex 6 0.5 1
   vertex 6 0.6 1
   vertex 6 0.56827 0.918762
  endloop
 endfacet
 facet normal -1 0 0
  outer loop
   vertex 6 0.171462 0.830532
   vertex 6 0.260086 0.904891
   vertex 6 0.26738 0.815258
  endloop
 endfacet
 facet normal -1 0 0
  outer loop
   vertex 6 0.260086 0.904891
   vertex 6 0.35 0.847072
   vertex 6 0.26738 0.815258
  endloop
 endfacet
 facet normal -1 0 0
  outer loop
   vertex 6 0.638254 0.852717
   vertex 6 0.605724 0.743282
   vertex 6 0.562982 0.833958
  endloop
 endfacet
 facet normal -1 0 0
  outer loop
   vertex 6 0.921521 0.628833
   vertex 6 0.844931 0.673803
   vertex 6 0.888191 0.735809
  endloop
 endfacet
 facet normal -1 0 -0
  outer loop
   vertex 6 0.458387 0.890788
   vertex 6 0.499346 0.780967
   vertex 6 0.42591 0.816907
  endloop
 endfacet
 facet normal -1 0 0
  outer loop
   vertex 6 1.46192 0.136255
   vertex 6 1.52752 0.227863
   vertex 6 1.53445 0.15458
  endloop
 endfacet
 facet normal -1 0 0
  outer loop
   vertex 6 1.56909 0.690036
   vertex 6 1.648 0.738679
   vertex 6 1.67562 0.659706
  endloop
 endfacet
 facet normal -1 0 0
  outer loop
   vertex 6 1.61612 0.612505
   vertex 6 1.56909 0.690036
   vertex 6 1.67562 0.659706
  endloop
 endfacet
 facet normal -1 0 0
  outer loop
   vertex 6 1.92329 0.923298
   vertex 6 2 0.9
   vertex 6 1.92487 0.841765
  endloop
 endfacet
 facet normal -1 0 0
  outer loop
   vertex 6 1.76219 0.353808
   vertex 6 1.77067 0.470236
   vertex 6 1.83513 0.415927
  endloop
 endfacet
 facet normal -1 0 0
  outer loop
   vertex 6 0.10548 0.10548
   vertex 6 0.173345 0.173971
   vertex 6 0.17041 0.068574
  endloop
 endfacet
 facet normal -1 0 0
  outer loop
   vertex 6 1.44687 0.065242
   vertex 6 1.34913 0.073759
   vertex 6 1.38349 0.145872
  endloop
 endfacet
 facet normal -1 0 -0
  outer loop
   vertex 6 0.945177 0.28693
   vertex 6 0.962403 0.186249
   vertex 6 0.875264 0.206451
  endloop
 endfacet
 facet normal -1 0 -0
  outer loop
   vertex 6 1.83608 0.616681
   vertex 6 1.87406 0.510267
   vertex 6 1.8014 0.543147
  endloop
 endfacet
 facet normal -1 -0 0
  outer loop
   vertex 6 1.87406 0.510267
   vertex 6 1.77067 0.470236
   vertex 6 1.8014 0.543147
  endloop
 endfacet
 facet normal -1 0 0
  outer loop
   vertex 6 0.10548 0.89452
   vertex 6 0.1 1
   vertex 6 0.178863 0.923852
  endloop
 endfacet
 facet normal -1 -0 0
  outer loop
   vertex 6 0.10548 0.10548
   vertex 6 0 0.1
   vertex 6 0.076148 0.178863
  endloop
 endfacet
 facet normal -1 0 0
  outer loop
   vertex 6 0 0.9
   vertex 6 0.10548 0.89452
   vertex 6 0.076148 0.821137
  endloop
 endfacet
 facet normal -1 0 0
  outer loop
   vertex 6 1.6 0
   vertex 6 1.5 0
   vertex 6 1.54568 0.086574
  endloop
 endfacet
 facet normal -1 -0 0
  outer loop
   vertex 6 0.948195 0.898634
   vertex 6 0.864815 0.825405
   vertex 6 0.852004 0.922935
  endloop
 endfacet
 facet normal -1 0 -0
  outer loop
   vertex 6 0.173345 0.173971
   vertex 6 0.250017 0.096224
   vertex 6 0.17041 0.068574
  endloop
 endfacet
 facet normal -1 -0 0
  outer loop
   vertex 6 0.962403 0.186249
   vertex 6 0.87062 0.105971
   vertex 6 0.875264 0.206451
  endloop
 endfacet
 facet normal -1 0 0
  outer loop
   vertex 6 0.87062 0.105971
   vertex 6 0.787177 0.170237
   vertex 6 0.875264 0.206451
  endloop
 endfacet
 facet normal -1 0 -0
  outer loop
   vertex 6 0.099566 0.745659
   vertex 6 0.154374 0.651622
   vertex 6 0.070618 0.651121
  endloop
 endfacet
 facet normal -1 0 0
  outer loop
   vertex 6 0.099566 0.254341
   vertex 6 0 0.3
   vertex 6 0.070947 0.350877
  endloop
 endfacet
 facet normal -1 -0 0
  outer loop
   vertex 6 0.154021 0.35001
   vertex 6 0.099566 0.254341
   vertex 6 0.070947 0.350877
  endloop
 endfacet
 facet normal -1 0 0
  outer loop
   vertex 6 0 0.7
   vertex 6 0.099566 0.745659
   vertex 6 0.070618 0.651121
  endloop
 endfacet
 facet normal -1 0 0
  outer loop
   vertex 6 0.35 0.847072
   vertex 6 0.260086 0.904891
   vertex 6 0.353695 0.92855
  endloop
 endfacet
 facet normal -1 0 0
  outer loop
   vertex 6 0.260086 0.904891
   vertex 6 0.3 1
   vertex 6 0.353695 0.92855
  endloop
 endfacet
 facet normal -1 0 0
  outer loop
   vertex 6 0.499346 0.780967
   vertex 6 0.605724 0.743282
   vertex 6 0.526579 0.692468
  endloop
 endfacet
 facet normal -1 0 0
  outer loop
   vertex 6 0.605724 0.743282
   vertex 6 0.60012 0.63459
   vertex 6 0.526579 0.692468
  endloop
 endfacet
 facet normal -1 0 0
  outer loop
   vertex 6 0.171462 0.830532
   vertex 6 0.099566 0.745659
   vertex 6 0.076148 0.821137
  endloop
 endfacet
 facet normal -1 0 -0
  outer loop
   vertex 6 0.099566 0.254341
   vertex 6 0.173345 0.173971
   vertex 6 0.076148 0.178863
  endloop
 endfacet
 facet normal -1 -0 0
  outer loop
   vertex 6 0.260086 0.904891
   vertex 6 0.171462 0.830532
   vertex 6 0.178863 0.923852
  endloop
 endfacet
 facet normal -1 0 0
  outer loop
   vertex 6 0.962403 0.186249
   vertex 6 0.945177 0.28693
   vertex 6 1.05512 0.245084
  endloop
 endfacet
 facet normal -1 0 0
  outer loop
   vertex 6 0.945177 0.28693
   vertex 6 1.02858 0.332467
   vertex 6 1.05512 0.245084
  endloop
 endfacet
 facet normal -1 0 0
  outer loop
   vertex 6 1.4 0
   vertex 6 1.34913 0.073759
   vertex 6 1.44687 0.065242
  endloop
 endfacet
 facet normal -1 0 0
  outer loop
   vertex 6 0.78794 0.760605
   vertex 6 0.864815 0.825405
   vertex 6 0.888191 0.735809
  endloop
 endfacet
 facet normal -1 0 0
  outer loop
   vertex 6 1.13615 0.89054
   vertex 6 1.2 1
   vertex 6 1.23648 0.919086
  endloop
 endfacet
 facet normal -1 0 0
  outer loop
   vertex 6 1.34355 0.604404
   vertex 6 1.24325 0.608634
   vertex 6 1.32603 0.670489
  endloop
 endfacet
 facet normal -1 0 -0
  outer loop
   vertex 6 0.830922 0.456271
   vertex 6 0.9 0.3725
   vertex 6 0.826463 0.355695
  endloop
 endfacet
 facet normal -1 0 -0
  outer loop
   vertex 6 0.9 1
   vertex 6 0.948195 0.898634
   vertex 6 0.852004 0.922935
  endloop
 endfacet
 facet normal -1 0 0
  outer loop
   vertex 6 0.433131 0.097194
   vertex 6 0.4 0
   vertex 6 0.348409 0.067567
  endloop
 endfacet
 facet normal -1 0 -0
  outer loop
   vertex 6 1.53758 0.894313
   vertex 6 1.5631 0.786155
   vertex 6 1.48949 0.816579
  endloop
 endfacet
 facet normal -1 -0 0
  outer loop
   vertex 6 1.91989 0.655048
   vertex 6 1.83608 0.616681
   vertex 6 1.83967 0.713666
  endloop
 endfacet
 facet normal -1 0 -0
  outer loop
   vertex 6 1.87406 0.510267
   vertex 6 1.91572 0.42198
   vertex 6 1.83513 0.415927
  endloop
 endfacet
 facet normal -1 0 0
  outer loop
   vertex 6 0.1 1
   vertex 6 0.2 1
   vertex 6 0.178863 0.923852
  endloop
 endfacet
 facet normal -1 0 0
  outer loop
   vertex 6 0 0.1
   vertex 6 0 0.2
   vertex 6 0.076148 0.178863
  endloop
 endfacet
 facet normal -1 0 0
  outer loop
   vertex 6 0 0.8
   vertex 6 0 0.9
   vertex 6 0.076148 0.821137
  endloop
 endfacet
 facet normal -1 0 0
  outer loop
   vertex 6 1.58931 0.362062
   vertex 6 1.66715 0.311485
   vertex 6 1.59462 0.26097
  endloop
 endfacet
 facet normal -1 0 -0
  outer loop
   vertex 6 2 0.9
   vertex 6 2 0.8
   vertex 6 1.92487 0.841765
  endloop
 endfacet
 facet normal -1 0 0
  outer loop
   vertex 6 0.417323 0.283869
   vertex 6 0.315103 0.303042
   vertex 6 0.381716 0.371934
  endloop
 endfacet
 facet normal -1 -0 0
  outer loop
   vertex 6 0.602895 0.134916
   vertex 6 0.541587 0.098626
   vertex 6 0.554913 0.190987
  endloop
 endfacet
 facet normal -1 0 0
  outer loop
   vertex 6 0.381533 0.465026
   vertex 6 0.310683 0.495364
   vertex 6 0.385229 0.558911
  endloop
 endfacet
 facet normal -1 0 0
  outer loop
   vertex 6 0 0.2
   vertex 6 0.099566 0.254341
   vertex 6 0.076148 0.178863
  endloop
 endfacet
 facet normal -1 0 0
  outer loop
   vertex 6 0.099566 0.745659
   vertex 6 0 0.8
   vertex 6 0.076148 0.821137
  endloop
 endfacet
 facet normal -1 0 -0
  outer loop
   vertex 6 0.2 1
   vertex 6 0.260086 0.904891
   vertex 6 0.178863 0.923852
  endloop
 endfacet
 facet normal -1 0 0
  outer loop
   vertex 6 1.7 0
   vertex 6 1.6 0
   vertex 6 1.63218 0.077121
  endloop
 endfacet
 facet normal -1 0 0
  outer loop
   vertex 6 1.62663 0.926166
   vertex 6 1.68717 0.887532
   vertex 6 1.62743 0.838036
  endloop
 endfacet
 facet normal -1 0 0
  outer loop
   vertex 6 1.3 1
   vertex 6 1.4 1
   vertex 6 1.35801 0.915677
  endloop
 endfacet
 facet normal -1 0 -0
  outer loop
   vertex 6 0.10548 0.89452
   vertex 6 0.171462 0.830532
   vertex 6 0.076148 0.821137
  endloop
 endfacet
 facet normal -1 -0 0
  outer loop
   vertex 6 0.173345 0.173971
   vertex 6 0.10548 0.10548
   vertex 6 0.076148 0.178863
  endloop
 endfacet
 facet normal -1 0 0
  outer loop
   vertex 6 0.171462 0.830532
   vertex 6 0.10548 0.89452
   vertex 6 0.178863 0.923852
  endloop
 endfacet
 facet normal -1 0 0
  outer loop
   vertex 6 0.605724 0.743282
   vertex 6 0.499346 0.780967
   vertex 6 0.562982 0.833958
  endloop
 endfacet
 facet normal -1 0 0
  outer loop
   vertex 6 1.24325 0.608634
   vertex 6 1.25642 0.694846
   vertex 6 1.32603 0.670489
  endloop
 endfacet
 facet normal -1 0 0
  outer loop
   vertex 6 1.2 1
   vertex 6 1.3 1
   vertex 6 1.23648 0.919086
  endloop
 endfacet
 facet normal -1 0 0
  outer loop
   vertex 6 0.455552 0.623986
   vertex 6 0.526579 0.692468
   vertex 6 0.53204 0.588196
  endloop
 endfacet
 facet normal -1 0 0
  outer loop
   vertex 6 0.526579 0.692468
   vertex 6 0.60012 0.63459
   vertex 6 0.53204 0.588196
  endloop
 endfacet
 facet normal -1 -0 0
  outer loop
   vertex 6 1.46192 0.136255
   vertex 6 1.44687 0.065242
   vertex 6 1.38349 0.145872
  endloop
 endfacet
 facet normal -1 -0 0
  outer loop
   vertex 6 1.76219 0.353808
   vertex 6 1.66715 0.311485
   vertex 6 1.67679 0.400315
  endloop
 endfacet
 facet normal -1 0 0
  outer loop
   vertex 6 1.17045 0.78839
   vertex 6 1.13615 0.89054
   vertex 6 1.22024 0.846017
  endloop
 endfacet
 facet normal -1 0 -0
  outer loop
   vertex 6 1.5 1
   vertex 6 1.53758 0.894313
   vertex 6 1.45 0.941846
  endloop
 endfacet
 facet normal -1 0 0
  outer loop
   vertex 6 0.906444 0.536086
   vertex 6 0.921521 0.628833
   vertex 6 0.979725 0.546526
  endloop
 endfacet
 facet normal -1 -0 0
  outer loop
   vertex 6 1.13745 0.260912
   vertex 6 1.05512 0.245084
   vertex 6 1.10726 0.330663
  endloop
 endfacet
 facet normal -1 0 0
  outer loop
   vertex 6 1.05512 0.245084
   vertex 6 1.02858 0.332467
   vertex 6 1.10726 0.330663
  endloop
 endfacet
 facet normal -1 0 -0
  outer loop
   vertex 6 1.25071 0.402475
   vertex 6 1.27915 0.302238
   vertex 6 1.19297 0.318603
  endloop
 endfacet
 facet normal -1 0 0
  outer loop
   vertex 6 0.8 1
   vertex 6 0.9 1
   vertex 6 0.852004 0.922935
  endloop
 endfacet
 facet normal -1 0 0
  outer loop
   vertex 6 1.42831 0.23583
   vertex 6 1.51236 0.308077
   vertex 6 1.52752 0.227863
  endloop
 endfacet
 facet normal -1 0 0
  outer loop
   vertex 6 0.286287 0.414675
   vertex 6 0.216837 0.500078
   vertex 6 0.310683 0.495364
  endloop
 endfacet
 facet normal -1 -0 0
  outer loop
   vertex 6 1.42831 0.23583
   vertex 6 1.32958 0.214045
   vertex 6 1.36102 0.289119
  endloop
 endfacet
 facet normal -1 0 0
  outer loop
   vertex 6 0.461824 0.530044
   vertex 6 0.544519 0.503153
   vertex 6 0.468476 0.438883
  endloop
 endfacet
 facet normal -1 0 0
  outer loop
   vertex 6 1.17045 0.78839
   vertex 6 1.26213 0.776409
   vertex 6 1.17449 0.705834
  endloop
 endfacet
 facet normal -1 0 0
  outer loop
   vertex 6 1.26213 0.776409
   vertex 6 1.25642 0.694846
   vertex 6 1.17449 0.705834
  endloop
 endfacet
 facet normal -1 0 0
  outer loop
   vertex 6 0.6 0
   vertex 6 0.5 0
   vertex 6 0.541587 0.098626
  endloop
 endfacet
 facet normal -1 0 0
  outer loop
   vertex 6 1.3 0
   vertex 6 1.2 0
   vertex 6 1.24913 0.073999
  endloop
 endfacet
 facet normal -1 0 0
  outer loop
   vertex 6 0.702823 0.108916
   vertex 6 0.7 0
   vertex 6 0.635365 0.069606
  endloop
 endfacet
 facet normal -1 0 -0
  outer loop
   vertex 6 2 1
   vertex 6 2 0.9
   vertex 6 1.92329 0.923298
  endloop
 endfacet
 facet normal -1 0 0
  outer loop
   vertex 6 1.9 1
   vertex 6 2 1
   vertex 6 1.92329 0.923298
  endloop
 endfacet
 facet normal -1 0 0
  outer loop
   vertex 6 1.8589 0.169658
   vertex 6 1.9121 0.252998
   vertex 6 1.93364 0.159034
  endloop
 endfacet
 facet normal -1 0 0
  outer loop
   vertex 6 1.9121 0.252998
   vertex 6 2 0.2
   vertex 6 1.93364 0.159034
  endloop
 endfacet
 facet normal -1 0 0
  outer loop
   vertex 6 0.395906 0.748801
   vertex 6 0.499346 0.780967
   vertex 6 0.454986 0.702676
  endloop
 endfacet
 facet normal -1 0 0
  outer loop
   vertex 6 1.6 1
   vertex 6 1.7 1
   vertex 6 1.62663 0.926166
  endloop
 endfacet
 facet normal -1 0 -0
  outer loop
   vertex 6 0.216837 0.500078
   vertex 6 0.286287 0.414675
   vertex 6 0.200543 0.416233
  endloop
 endfacet
 facet normal -1 -0 0
  outer loop
   vertex 6 0.499346 0.780967
   vertex 6 0.395906 0.748801
   vertex 6 0.42591 0.816907
  endloop
 endfacet
 facet normal -1 0 -0
  outer loop
   vertex 6 1.45149 0.492623
   vertex 6 1.50566 0.415077
   vertex 6 1.41529 0.413727
  endloop
 endfacet
 facet normal -1 0 0
  outer loop
   vertex 6 0.110323 0.563701
   vertex 6 0 0.6
   vertex 6 0.070618 0.651121
  endloop
 endfacet
 facet normal -1 0 0
  outer loop
   vertex 6 0.154374 0.651622
   vertex 6 0.110323 0.563701
   vertex 6 0.070618 0.651121
  endloop
 endfacet
 facet normal -1 0 0
  outer loop
   vertex 6 1.54568 0.086574
   vertex 6 1.60268 0.167627
   vertex 6 1.63218 0.077121
  endloop
 endfacet
 facet normal -1 -0 0
  outer loop
   vertex 6 0.395906 0.748801
   vertex 6 0.312814 0.683602
   vertex 6 0.319715 0.763034
  endloop
 endfacet
 facet normal -1 0 0
  outer loop
   vertex 6 1.14112 0.629034
   vertex 6 1.08902 0.715745
   vertex 6 1.17449 0.705834
  endloop
 endfacet
 facet normal -1 0 0
  outer loop
   vertex 6 1.08902 0.715745
   vertex 6 1.17045 0.78839
   vertex 6 1.17449 0.705834
  endloop
 endfacet
 facet normal -1 0 0
  outer loop
   vertex 6 0.702823 0.108916
   vertex 6 0.787177 0.170237
   vertex 6 0.782595 0.082281
  endloop
 endfacet
 facet normal -1 0 0
  outer loop
   vertex 6 1.15913 0.390287
   vertex 6 1.25071 0.402475
   vertex 6 1.19297 0.318603
  endloop
 endfacet
 facet normal -1 0 0
  outer loop
   vertex 6 1.78274 0.17317
   vertex 6 1.74634 0.247768
   vertex 6 1.82359 0.265437
  endloop
 endfacet
 facet normal -1 0 0
  outer loop
   vertex 6 0.821189 0.584433
   vertex 6 0.844931 0.673803
   vertex 6 0.921521 0.628833
  endloop
 endfacet
 facet normal -1 0 0
  outer loop
   vertex 6 0.906444 0.536086
   vertex 6 0.821189 0.584433
   vertex 6 0.921521 0.628833
  endloop
 endfacet
 facet normal -1 0 0
  outer loop
   vertex 6 1.35161 0.470935
   vertex 6 1.45149 0.492623
   vertex 6 1.41529 0.413727
  endloop
 endfacet
 facet normal -1 0 0
  outer loop
   vertex 6 0.1 0
   vertex 6 0.10548 0.10548
   vertex 6 0.17041 0.068574
  endloop
 endfacet
 facet normal -1 0 0
  outer loop
   vertex 6 0.6 0
   vertex 6 0.541587 0.098626
   vertex 6 0.635365 0.069606
  endloop
 endfacet
 facet normal -1 0 -0
  outer loop
   vertex 6 0.286287 0.414675
   vertex 6 0.315103 0.303042
   vertex 6 0.233484 0.351953
  endloop
 endfacet
 facet normal -1 -0 0
  outer loop
   vertex 6 0.381533 0.465026
   vertex 6 0.286287 0.414675
   vertex 6 0.310683 0.495364
  endloop
 endfacet
 facet normal -1 -0 0
  outer loop
   vertex 6 1.34913 0.073759
   vertex 6 1.3 0
   vertex 6 1.24913 0.073999
  endloop
 endfacet
 facet normal -1 0 0
  outer loop
   vertex 6 0.605724 0.743282
   vertex 6 0.709794 0.722092
   vertex 6 0.653692 0.67746
  endloop
 endfacet
 facet normal -1 0 0
  outer loop
   vertex 6 0.60012 0.63459
   vertex 6 0.605724 0.743282
   vertex 6 0.653692 0.67746
  endloop
 endfacet
 facet normal -1 0 0
  outer loop
   vertex 6 1.3433 0.366023
   vertex 6 1.35161 0.470935
   vertex 6 1.41529 0.413727
  endloop
 endfacet
 facet normal -1 0 -0
  outer loop
   vertex 6 0.35 0.847072
   vertex 6 0.395906 0.748801
   vertex 6 0.319715 0.763034
  endloop
 endfacet
 facet normal -1 0 0
  outer loop
   vertex 6 0.310683 0.495364
   vertex 6 0.305729 0.579083
   vertex 6 0.385229 0.558911
  endloop
 endfacet
 facet normal -1 -0 0
  outer loop
   vertex 6 1.08902 0.715745
   vertex 6 0.986509 0.697228
   vertex 6 1.02888 0.768898
  endloop
 endfacet
 facet normal -1 0 -0
  outer loop
   vertex 6 1.86063 0.345336
   vertex 6 1.9121 0.252998
   vertex 6 1.82359 0.265437
  endloop
 endfacet
 facet normal -1 0 -0
  outer loop
   vertex 6 2 0.6
   vertex 6 2 0.5
   vertex 6 1.92998 0.576359
  endloop
 endfacet
 facet normal -1 0 0
  outer loop
   vertex 6 0.5 0
   vertex 6 0.433131 0.097194
   vertex 6 0.541587 0.098626
  endloop
 endfacet
 facet normal -1 0 0
  outer loop
   vertex 6 0.702823 0.108916
   vertex 6 0.602895 0.134916
   vertex 6 0.666272 0.182438
  endloop
 endfacet
 facet normal -1 0 0
  outer loop
   vertex 6 0.225945 0.733479
   vertex 6 0.171462 0.830532
   vertex 6 0.26738 0.815258
  endloop
 endfacet
 facet normal -1 0 0
  outer loop
   vertex 6 1.6 0
   vertex 6 1.54568 0.086574
   vertex 6 1.63218 0.077121
  endloop
 endfacet
 facet normal -1 0 0
  outer loop
   vertex 6 1.74415 0.685739
   vertex 6 1.72478 0.575405
   vertex 6 1.67562 0.659706
  endloop
 endfacet
 facet normal -1 0 0
  outer loop
   vertex 6 0.395906 0.748801
   vertex 6 0.35 0.847072
   vertex 6 0.42591 0.816907
  endloop
 endfacet
 facet normal -1 -0 0
  outer loop
   vertex 6 1.17045 0.78839
   vertex 6 1.08902 0.715745
   vertex 6 1.09007 0.798379
  endloop
 endfacet
 facet normal -1 0 0
  outer loop
   vertex 6 1.48275 0.658752
   vertex 6 1.56909 0.690036
   vertex 6 1.53783 0.608162
  endloop
 endfacet
 facet normal -1 0 -0
  outer loop
   vertex 6 1.42831 0.23583
   vertex 6 1.46192 0.136255
   vertex 6 1.38349 0.145872
  endloop
 endfacet
 facet normal -1 0 0
  outer loop
   vertex 6 1.32958 0.214045
   vertex 6 1.42831 0.23583
   vertex 6 1.38349 0.145872
  endloop
 endfacet
 facet normal -1 -0 0
  outer loop
   vertex 6 1.51236 0.308077
   vertex 6 1.42831 0.23583
   vertex 6 1.42477 0.327458
  endloop
 endfacet
 facet normal -1 0 -0
  outer loop
   vertex 6 2 0.7
   vertex 6 2 0.6
   vertex 6 1.91989 0.655048
  endloop
 endfacet
 facet normal -1 0 0
  outer loop
   vertex 6 0.602895 0.134916
   vertex 6 0.702823 0.108916
   vertex 6 0.635365 0.069606
  endloop
 endfacet
 facet normal -1 0 0
  outer loop
   vertex 6 1.51236 0.308077
   vertex 6 1.50566 0.415077
   vertex 6 1.58931 0.362062
  endloop
 endfacet
 facet normal -1 -0 0
  outer loop
   vertex 6 1.21143 0.141325
   vertex 6 1.14908 0.07881
   vertex 6 1.14001 0.18148
  endloop
 endfacet
 facet normal -1 0 0
  outer loop
   vertex 6 1.14908 0.07881
   vertex 6 1.0629 0.137706
   vertex 6 1.14001 0.18148
  endloop
 endfacet
 facet normal -1 0 0
  outer loop
   vertex 6 0.381533 0.465026
   vertex 6 0.461824 0.530044
   vertex 6 0.468476 0.438883
  endloop
 endfacet
 facet normal -1 0 -0
  outer loop
   vertex 6 1.46192 0.136255
   vertex 6 1.54568 0.086574
   vertex 6 1.44687 0.065242
  endloop
 endfacet
 facet normal -1 0 0
  outer loop
   vertex 6 1.54568 0.086574
   vertex 6 1.5 0
   vertex 6 1.44687 0.065242
  endloop
 endfacet
 facet normal -1 0 0
  outer loop
   vertex 6 1.60863 0.455746
   vertex 6 1.54102 0.530215
   vertex 6 1.63273 0.53529
  endloop
 endfacet
 facet normal -1 0 0
  outer loop
   vertex 6 0.455552 0.623986
   vertex 6 0.385751 0.650188
   vertex 6 0.454986 0.702676
  endloop
 endfacet
 facet normal -1 0 0
  outer loop
   vertex 6 0.69913 0.609877
   vertex 6 0.60012 0.63459
   vertex 6 0.653692 0.67746
  endloop
 endfacet
 facet normal -1 0 0
  outer loop
   vertex 6 0.709794 0.722092
   vertex 6 0.69913 0.609877
   vertex 6 0.653692 0.67746
  endloop
 endfacet
 facet normal -1 0 0
  outer loop
   vertex 6 1.2 0
   vertex 6 1.1 0
   vertex 6 1.14908 0.07881
  endloop
 endfacet
 facet normal -1 0 0
  outer loop
   vertex 6 0.638254 0.852717
   vertex 6 0.56827 0.918762
   vertex 6 0.650505 0.93319
  endloop
 endfacet
 facet normal -1 0 0
  outer loop
   vertex 6 0.56827 0.918762
   vertex 6 0.6 1
   vertex 6 0.650505 0.93319
  endloop
 endfacet
 facet normal -1 0 -0
  outer loop
   vertex 6 0.417323 0.283869
   vertex 6 0.472907 0.196897
   vertex 6 0.390407 0.204465
  endloop
 endfacet
 facet normal -1 0 0
  outer loop
   vertex 6 0.336302 0.143003
   vertex 6 0.27944 0.199418
   vertex 6 0.390407 0.204465
  endloop
 endfacet
 facet normal -1 -0 0
  outer loop
   vertex 6 1.04662 0.504687
   vertex 6 0.959629 0.45927
   vertex 6 0.979725 0.546526
  endloop
 endfacet
 facet normal -1 0 0
  outer loop
   vertex 6 0.959629 0.45927
   vertex 6 0.906444 0.536086
   vertex 6 0.979725 0.546526
  endloop
 endfacet
 facet normal -1 0 0
  outer loop
   vertex 6 1.22409 0.225042
   vertex 6 1.13745 0.260912
   vertex 6 1.19297 0.318603
  endloop
 endfacet
 facet normal -1 -0 0
  outer loop
   vertex 6 1.27915 0.302238
   vertex 6 1.22409 0.225042
   vertex 6 1.19297 0.318603
  endloop
 endfacet
 facet normal -1 0 0
  outer loop
   vertex 6 0.69913 0.609877
   vertex 6 0.709794 0.722092
   vertex 6 0.76883 0.667796
  endloop
 endfacet
 facet normal -1 0 0
  outer loop
   vertex 6 1.86375 0.878471
   vertex 6 1.92329 0.923298
   vertex 6 1.92487 0.841765
  endloop
 endfacet
 facet normal -1 0 0
  outer loop
   vertex 6 0.461824 0.530044
   vertex 6 0.455552 0.623986
   vertex 6 0.53204 0.588196
  endloop
 endfacet
 facet normal -1 0 0
  outer loop
   vertex 6 0.544519 0.503153
   vertex 6 0.461824 0.530044
   vertex 6 0.53204 0.588196
  endloop
 endfacet
 facet normal -1 0 0
  outer loop
   vertex 6 0.945177 0.28693
   vertex 6 0.9 0.3725
   vertex 6 0.976852 0.379615
  endloop
 endfacet
 facet normal -1 -0 0
  outer loop
   vertex 6 1.02858 0.332467
   vertex 6 0.945177 0.28693
   vertex 6 0.976852 0.379615
  endloop
 endfacet
 facet normal -1 0 0
  outer loop
   vertex 6 1.72478 0.575405
   vertex 6 1.68492 0.487878
   vertex 6 1.63273 0.53529
  endloop
 endfacet
 facet normal -1 0 0
  outer loop
   vertex 6 1.50566 0.415077
   vertex 6 1.60863 0.455746
   vertex 6 1.58931 0.362062
  endloop
 endfacet
 facet normal -1 0 0
  outer loop
   vertex 6 1.24325 0.608634
   vertex 6 1.34355 0.604404
   vertex 6 1.31703 0.540601
  endloop
 endfacet
 facet normal -1 0 0
  outer loop
   vertex 6 1.34913 0.073759
   vertex 6 1.28516 0.150098
   vertex 6 1.38349 0.145872
  endloop
 endfacet
 facet normal -1 0 -0
  outer loop
   vertex 6 0.493712 0.343459
   vertex 6 0.549405 0.264872
   vertex 6 0.483337 0.272274
  endloop
 endfacet
 facet normal -1 -0 0
  outer loop
   vertex 6 0.549405 0.264872
   vertex 6 0.472907 0.196897
   vertex 6 0.483337 0.272274
  endloop
 endfacet
 facet normal -1 0 0
  outer loop
   vertex 6 0.2 0
   vertex 6 0.1 0
   vertex 6 0.17041 0.068574
  endloop
 endfacet
 facet normal -1 -0 0
  outer loop
   vertex 6 0.461824 0.530044
   vertex 6 0.381533 0.465026
   vertex 6 0.385229 0.558911
  endloop
 endfacet
 facet normal -1 0 0
  outer loop
   vertex 6 0.472907 0.196897
   vertex 6 0.417323 0.283869
   vertex 6 0.483337 0.272274
  endloop
 endfacet
 facet normal -1 0 0
  outer loop
   vertex 6 0.417323 0.283869
   vertex 6 0.493712 0.343459
   vertex 6 0.483337 0.272274
  endloop
 endfacet
 facet normal -1 0 0
  outer loop
   vertex 6 1.74415 0.685739
   vertex 6 1.7757 0.775705
   vertex 6 1.83967 0.713666
  endloop
 endfacet
 facet normal -1 0 0
  outer loop
   vertex 6 1.28516 0.150098
   vertex 6 1.32958 0.214045
   vertex 6 1.38349 0.145872
  endloop
 endfacet
 facet normal -1 0 0
  outer loop
   vertex 6 1.29598 0.855658
   vertex 6 1.35801 0.915677
   vertex 6 1.37889 0.814256
  endloop
 endfacet
 facet normal -1 0 0
  outer loop
   vertex 6 1.35801 0.915677
   vertex 6 1.43868 0.870006
   vertex 6 1.37889 0.814256
  endloop
 endfacet
 facet normal -1 0 0
  outer loop
   vertex 6 0.655229 0.488642
   vertex 6 0.544519 0.503153
   vertex 6 0.60704 0.561954
  endloop
 endfacet
 facet normal -1 0 0
  outer loop
   vertex 6 1 1
   vertex 6 1.1 1
   vertex 6 1.05 0.92799
  endloop
 endfacet
 facet normal -1 0 0
  outer loop
   vertex 6 0.472907 0.196897
   vertex 6 0.549405 0.264872
   vertex 6 0.554913 0.190987
  endloop
 endfacet
 facet normal -1 0 0
  outer loop
   vertex 6 0.634588 0.254857
   vertex 6 0.549405 0.264872
   vertex 6 0.59461 0.33649
  endloop
 endfacet
 facet normal -1 0 0
  outer loop
   vertex 6 1.83608 0.616681
   vertex 6 1.91989 0.655048
   vertex 6 1.92998 0.576359
  endloop
 endfacet
 facet normal -1 0 0
  outer loop
   vertex 6 0.7 0
   vertex 6 0.6 0
   vertex 6 0.635365 0.069606
  endloop
 endfacet
 facet normal -1 0 0
  outer loop
   vertex 6 0.655229 0.488642
   vertex 6 0.755942 0.521188
   vertex 6 0.722941 0.443642
  endloop
 endfacet
 facet normal -1 0 -0
  outer loop
   vertex 6 0.1 1
   vertex 6 0.10548 0.89452
   vertex 6 0.05137 0.94863
  endloop
 endfacet
 facet normal -1 0 0
  outer loop
   vertex 6 0 0.1
   vertex 6 0.10548 0.10548
   vertex 6 0.05421 0.05421
  endloop
 endfacet
 facet normal -1 0 0
  outer loop
   vertex 6 0.10548 0.10548
   vertex 6 0.1 0
   vertex 6 0.05421 0.05421
  endloop
 endfacet
 facet normal -1 0 0
  outer loop
   vertex 6 0.10548 0.89452
   vertex 6 0 0.9
   vertex 6 0.05137 0.94863
  endloop
 endfacet
 facet normal -1 0 -0
  outer loop
   vertex 6 0.74701 0.890637
   vertex 6 0.78794 0.760605
   vertex 6 0.69899 0.799708
  endloop
 endfacet
 facet normal -1 0 0
  outer loop
   vertex 6 1.54102 0.530215
   vertex 6 1.61612 0.612505
   vertex 6 1.63273 0.53529
  endloop
 endfacet
 facet normal -1 0 0
  outer loop
   vertex 6 1.83608 0.616681
   vertex 6 1.74415 0.685739
   vertex 6 1.83967 0.713666
  endloop
 endfacet
 facet normal -1 0 0
  outer loop
   vertex 6 0.844931 0.673803
   vertex 6 0.821189 0.584433
   vertex 6 0.76883 0.667796
  endloop
 endfacet
 facet normal -1 0 -0
  outer loop
   vertex 6 1.56909 0.690036
   vertex 6 1.61612 0.612505
   vertex 6 1.53783 0.608162
  endloop
 endfacet
 facet normal -1 0 0
  outer loop
   vertex 6 1.52752 0.227863
   vertex 6 1.51236 0.308077
   vertex 6 1.59462 0.26097
  endloop
 endfacet
 facet normal -1 0 0
  outer loop
   vertex 6 0.211467 0.275803
   vertex 6 0.315103 0.303042
   vertex 6 0.27944 0.199418
  endloop
 endfacet
 facet normal -1 0 0
  outer loop
   vertex 6 1.61612 0.612505
   vertex 6 1.54102 0.530215
   vertex 6 1.53783 0.608162
  endloop
 endfacet
 facet normal -1 0 0
  outer loop
   vertex 6 1.60863 0.455746
   vertex 6 1.68492 0.487878
   vertex 6 1.67679 0.400315
  endloop
 endfacet
 facet normal -1 0 -0
  outer loop
   vertex 6 1.04586 0.606861
   vertex 6 1.04662 0.504687
   vertex 6 0.979725 0.546526
  endloop
 endfacet
 facet normal -1 0 -0
  outer loop
   vertex 6 0.455552 0.623986
   vertex 6 0.461824 0.530044
   vertex 6 0.385229 0.558911
  endloop
 endfacet
 facet normal -1 0 0
  outer loop
   vertex 6 1.3433 0.366023
   vertex 6 1.41529 0.413727
   vertex 6 1.42477 0.327458
  endloop
 endfacet
 facet normal -1 0 -0
  outer loop
   vertex 6 1.25008 0.498801
   vertex 6 1.25071 0.402475
   vertex 6 1.1845 0.459143
  endloop
 endfacet
 facet normal -1 -0 0
  outer loop
   vertex 6 1.25071 0.402475
   vertex 6 1.15913 0.390287
   vertex 6 1.1845 0.459143
  endloop
 endfacet
 facet normal -1 0 0
  outer loop
   vertex 6 1.07335 0.418375
   vertex 6 1.02858 0.332467
   vertex 6 0.976852 0.379615
  endloop
 endfacet
 facet normal -1 0 0
  outer loop
   vertex 6 0.3 1
   vertex 6 0.4 1
   vertex 6 0.353695 0.92855
  endloop
 endfacet
 facet normal -1 0 0
  outer loop
   vertex 6 0 0.3
   vertex 6 0 0.4
   vertex 6 0.070947 0.350877
  endloop
 endfacet
 facet normal -1 0 0
  outer loop
   vertex 6 0 0.6
   vertex 6 0 0.7
   vertex 6 0.070618 0.651121
  endloop
 endfacet
 facet normal -1 0 0
  outer loop
   vertex 6 0.634588 0.254857
   vertex 6 0.724947 0.266338
   vertex 6 0.666272 0.182438
  endloop
 endfacet
 facet normal -1 0 0
  outer loop
   vertex 6 0.4 0
   vertex 6 0.3 0
   vertex 6 0.348409 0.067567
  endloop
 endfacet
 facet normal -1 0 0
  outer loop
   vertex 6 1.53758 0.894313
   vertex 6 1.6 1
   vertex 6 1.62663 0.926166
  endloop
 endfacet
 facet normal -1 0 -0
  outer loop
   vertex 6 2 0.2
   vertex 6 2 0.1
   vertex 6 1.93364 0.159034
  endloop
 endfacet
 facet normal -1 0 0
  outer loop
   vertex 6 1.35161 0.470935
   vertex 6 1.25008 0.498801
   vertex 6 1.31703 0.540601
  endloop
 endfacet
 facet normal -1 0 0
  outer loop
   vertex 6 1.25008 0.498801
   vertex 6 1.24325 0.608634
   vertex 6 1.31703 0.540601
  endloop
 endfacet
 facet normal -1 0 0
  outer loop
   vertex 6 0.541587 0.098626
   vertex 6 0.602895 0.134916
   vertex 6 0.635365 0.069606
  endloop
 endfacet
 facet normal -1 0 0
  outer loop
   vertex 6 1.21143 0.141325
   vertex 6 1.22409 0.225042
   vertex 6 1.28516 0.150098
  endloop
 endfacet
 facet normal -1 0 0
  outer loop
   vertex 6 0.211467 0.275803
   vertex 6 0.154021 0.35001
   vertex 6 0.233484 0.351953
  endloop
 endfacet
 facet normal -1 0 0
  outer loop
   vertex 6 0.250017 0.096224
   vertex 6 0.2 0
   vertex 6 0.17041 0.068574
  endloop
 endfacet
 facet normal -1 0 0
  outer loop
   vertex 6 1.86375 0.878471
   vertex 6 1.77768 0.885398
   vertex 6 1.85107 0.941027
  endloop
 endfacet
 facet normal -1 0 0
  outer loop
   vertex 6 1.77768 0.885398
   vertex 6 1.8 1
   vertex 6 1.85107 0.941027
  endloop
 endfacet
 facet normal -1 0 0
  outer loop
   vertex 6 1.648 0.738679
   vertex 6 1.74415 0.685739
   vertex 6 1.67562 0.659706
  endloop
 endfacet
 facet normal -1 0 -0
  outer loop
   vertex 6 1.42477 0.327458
   vertex 6 1.42831 0.23583
   vertex 6 1.36102 0.289119
  endloop
 endfacet
 facet normal -1 0 0
  outer loop
   vertex 6 0.6 1
   vertex 6 0.7 1
   vertex 6 0.650505 0.93319
  endloop
 endfacet
 facet normal -1 0 0
  outer loop
   vertex 6 1.83967 0.713666
   vertex 6 1.7757 0.775705
   vertex 6 1.8502 0.806801
  endloop
 endfacet
 facet normal -1 0 0
  outer loop
   vertex 6 0.154374 0.651622
   vertex 6 0.225945 0.733479
   vertex 6 0.242333 0.654537
  endloop
 endfacet
 facet normal -1 0 0
  outer loop
   vertex 6 0.9 0.3725
   vertex 6 0.959629 0.45927
   vertex 6 0.976852 0.379615
  endloop
 endfacet
 facet normal -1 -0 0
  outer loop
   vertex 6 1.5631 0.786155
   vertex 6 1.46 0.737856
   vertex 6 1.48949 0.816579
  endloop
 endfacet
 facet normal -1 0 0
  outer loop
   vertex 6 0.986509 0.697228
   vertex 6 0.955326 0.7887
   vertex 6 1.02888 0.768898
  endloop
 endfacet
 facet normal -1 0 0
  outer loop
   vertex 6 0.468476 0.438883
   vertex 6 0.544519 0.503153
   vertex 6 0.563102 0.416438
  endloop
 endfacet
 facet normal -1 -0 0
  outer loop
   vertex 6 1.9195 0.745801
   vertex 6 1.83967 0.713666
   vertex 6 1.8502 0.806801
  endloop
 endfacet
 facet normal -1 0 0
  outer loop
   vertex 6 1.14089 0.530714
   vertex 6 1.25008 0.498801
   vertex 6 1.1845 0.459143
  endloop
 endfacet
 facet normal -1 0 -0
  outer loop
   vertex 6 1.0629 0.137706
   vertex 6 1.14908 0.07881
   vertex 6 1.05741 0.059631
  endloop
 endfacet
 facet normal -1 0 0
  outer loop
   vertex 6 1.14908 0.07881
   vertex 6 1.1 0
   vertex 6 1.05741 0.059631
  endloop
 endfacet
 facet normal -1 0 -0
  outer loop
   vertex 6 0.499346 0.780967
   vertex 6 0.526579 0.692468
   vertex 6 0.454986 0.702676
  endloop
 endfacet
 facet normal -1 -0 0
  outer loop
   vertex 6 0.315103 0.303042
   vertex 6 0.211467 0.275803
   vertex 6 0.233484 0.351953
  endloop
 endfacet
 facet normal -1 0 -0
  outer loop
   vertex 6 2 0.4
   vertex 6 2 0.3
   vertex 6 1.93943 0.35
  endloop
 endfacet
 facet normal -1 0 0
  outer loop
   vertex 6 1.1 0
   vertex 6 1 0
   vertex 6 1.05741 0.059631
  endloop
 endfacet
 facet normal -1 0 0
  outer loop
   vertex 6 1.5 0
   vertex 6 1.4 0
   vertex 6 1.44687 0.065242
  endloop
 endfacet
 facet normal -1 0 0
  outer loop
   vertex 6 0.955326 0.7887
   vertex 6 1.02345 0.844439
   vertex 6 1.02888 0.768898
  endloop
 endfacet
 facet normal -1 0 0
  outer loop
   vertex 6 1.58931 0.362062
   vertex 6 1.60863 0.455746
   vertex 6 1.67679 0.400315
  endloop
 endfacet
 facet normal -1 0 0
  outer loop
   vertex 6 1.66715 0.311485
   vertex 6 1.58931 0.362062
   vertex 6 1.67679 0.400315
  endloop
 endfacet
 facet normal -1 0 0
  outer loop
   vertex 6 1.4 1
   vertex 6 1.5 1
   vertex 6 1.45 0.941846
  endloop
 endfacet
 facet normal -1 0 -0
  outer loop
   vertex 6 0.56827 0.918762
   vertex 6 0.638254 0.852717
   vertex 6 0.562982 0.833958
  endloop
 endfacet
 facet normal -1 -0 0
  outer loop
   vertex 6 1.68492 0.487878
   vertex 6 1.60863 0.455746
   vertex 6 1.63273 0.53529
  endloop
 endfacet
 facet normal -1 0 0
  outer loop
   vertex 6 1.8 1
   vertex 6 1.9 1
   vertex 6 1.85107 0.941027
  endloop
 endfacet
 facet normal -1 0 0
  outer loop
   vertex 6 0.864815 0.825405
   vertex 6 0.955326 0.7887
   vertex 6 0.888191 0.735809
  endloop
 endfacet
 facet normal -1 0 0
  outer loop
   vertex 6 0 0.9
   vertex 6 0 1
   vertex 6 0.05137 0.94863
  endloop
 endfacet
 facet normal -1 0 0
  outer loop
   vertex 6 0 0
   vertex 6 0 0.1
   vertex 6 0.05421 0.05421
  endloop
 endfacet
 facet normal -1 0 0
  outer loop
   vertex 6 0.1 0
   vertex 6 0 0
   vertex 6 0.05421 0.05421
  endloop
 endfacet
 facet normal -1 0 0
  outer loop
   vertex 6 0 1
   vertex 6 0.1 1
   vertex 6 0.05137 0.94863
  endloop
 endfacet
 facet normal -1 0 0
  outer loop
   vertex 6 0.206194 0.591208
   vertex 6 0.154374 0.651622
   vertex 6 0.242333 0.654537
  endloop
 endfacet
 facet normal -1 0 0
  outer loop
   vertex 6 1 0
   vertex 6 0.975058 0.081637
   vertex 6 1.05741 0.059631
  endloop
 endfacet
 facet normal -1 0 0
  outer loop
   vertex 6 1.35801 0.915677
   vertex 6 1.4 1
   vertex 6 1.45 0.941846
  endloop
 endfacet
 facet normal -1 0 0
  outer loop
   vertex 6 1.43868 0.870006
   vertex 6 1.35801 0.915677
   vertex 6 1.45 0.941846
  endloop
 endfacet
 facet normal -1 0 0
  outer loop
   vertex 6 1.60268 0.167627
   vertex 6 1.52752 0.227863
   vertex 6 1.59462 0.26097
  endloop
 endfacet
 facet normal -1 0 0
  outer loop
   vertex 6 0.493712 0.343459
   vertex 6 0.468476 0.438883
   vertex 6 0.563102 0.416438
  endloop
 endfacet
 facet normal -1 0 0
  outer loop
   vertex 6 0.225945 0.733479
   vertex 6 0.312814 0.683602
   vertex 6 0.242333 0.654537
  endloop
 endfacet
 facet normal -1 0 -0
  outer loop
   vertex 6 0.385751 0.650188
   vertex 6 0.455552 0.623986
   vertex 6 0.385229 0.558911
  endloop
 endfacet
 facet normal -1 0 0
  outer loop
   vertex 6 1.07335 0.418375
   vertex 6 1.15913 0.390287
   vertex 6 1.10726 0.330663
  endloop
 endfacet
 facet normal -1 0 0
  outer loop
   vertex 6 1.91572 0.42198
   vertex 6 2 0.4
   vertex 6 1.93943 0.35
  endloop
 endfacet
 facet normal -1 0 0
  outer loop
   vertex 6 1.86063 0.345336
   vertex 6 1.91572 0.42198
   vertex 6 1.93943 0.35
  endloop
 endfacet
 facet normal -1 -0 0
  outer loop
   vertex 6 0.78794 0.760605
   vertex 6 0.709794 0.722092
   vertex 6 0.69899 0.799708
  endloop
 endfacet
 facet normal -1 0 0
  outer loop
   vertex 6 1.54568 0.086574
   vertex 6 1.46192 0.136255
   vertex 6 1.53445 0.15458
  endloop
 endfacet
 facet normal -1 0 0
  outer loop
   vertex 6 1.60268 0.167627
   vertex 6 1.54568 0.086574
   vertex 6 1.53445 0.15458
  endloop
 endfacet
 facet normal -1 0 0
  outer loop
   vertex 6 0.26738 0.815258
   vertex 6 0.35 0.847072
   vertex 6 0.319715 0.763034
  endloop
 endfacet
 facet normal -1 -0 0
  outer loop
   vertex 6 1.66466 0.22385
   vertex 6 1.60268 0.167627
   vertex 6 1.59462 0.26097
  endloop
 endfacet
 facet normal -1 0 0
  outer loop
   vertex 6 0.975058 0.081637
   vertex 6 1.0629 0.137706
   vertex 6 1.05741 0.059631
  endloop
 endfacet
 facet normal -1 -0 0
  outer loop
   vertex 6 1.8589 0.169658
   vertex 6 1.79946 0.08337
   vertex 6 1.78274 0.17317
  endloop
 endfacet
 facet normal -1 0 0
  outer loop
   vertex 6 1.79946 0.08337
   vertex 6 1.71253 0.131402
   vertex 6 1.78274 0.17317
  endloop
 endfacet
 facet normal -1 0 0
  outer loop
   vertex 6 1.02858 0.332467
   vertex 6 1.07335 0.418375
   vertex 6 1.10726 0.330663
  endloop
 endfacet
 facet normal -1 0 0
  outer loop
   vertex 6 1.13615 0.89054
   vertex 6 1.23648 0.919086
   vertex 6 1.22024 0.846017
  endloop
 endfacet
 facet normal -1 -0 0
  outer loop
   vertex 6 2 0.1
   vertex 6 1.91533 0.085344
   vertex 6 1.93364 0.159034
  endloop
 endfacet
 facet normal -1 0 0
  outer loop
   vertex 6 0.544519 0.503153
   vertex 6 0.53204 0.588196
   vertex 6 0.60704 0.561954
  endloop
 endfacet
 facet normal -1 0 0
  outer loop
   vertex 6 0.53204 0.588196
   vertex 6 0.60012 0.63459
   vertex 6 0.60704 0.561954
  endloop
 endfacet
 facet normal -1 0 0
  outer loop
   vertex 6 1.3433 0.366023
   vertex 6 1.42477 0.327458
   vertex 6 1.36102 0.289119
  endloop
 endfacet
 facet normal -1 0 0
  outer loop
   vertex 6 1.91572 0.42198
   vertex 6 1.86063 0.345336
   vertex 6 1.83513 0.415927
  endloop
 endfacet
 facet normal -1 0 0
  outer loop
   vertex 6 0.154021 0.35001
   vertex 6 0.200543 0.416233
   vertex 6 0.233484 0.351953
  endloop
 endfacet
 facet normal -1 -0 0
  outer loop
   vertex 6 0.526579 0.692468
   vertex 6 0.455552 0.623986
   vertex 6 0.454986 0.702676
  endloop
 endfacet
 facet normal -1 0 -0
  outer loop
   vertex 6 1.23648 0.919086
   vertex 6 1.29598 0.855658
   vertex 6 1.22024 0.846017
  endloop
 endfacet
 facet normal -1 0 0
  outer loop
   vertex 6 1.22409 0.225042
   vertex 6 1.21143 0.141325
   vertex 6 1.14001 0.18148
  endloop
 endfacet
 facet normal -1 0 0
  outer loop
   vertex 6 1.13745 0.260912
   vertex 6 1.22409 0.225042
   vertex 6 1.14001 0.18148
  endloop
 endfacet
 facet normal -1 0 0
  outer loop
   vertex 6 1.34913 0.073759
   vertex 6 1.24913 0.073999
   vertex 6 1.28516 0.150098
  endloop
 endfacet
 facet normal -1 0 0
  outer loop
   vertex 6 1.91989 0.655048
   vertex 6 2 0.6
   vertex 6 1.92998 0.576359
  endloop
 endfacet
 facet normal -1 -0 0
  outer loop
   vertex 6 1.48275 0.658752
   vertex 6 1.4283 0.569513
   vertex 6 1.39809 0.661437
  endloop
 endfacet
 facet normal -1 0 0
  outer loop
   vertex 6 1.66715 0.311485
   vertex 6 1.66466 0.22385
   vertex 6 1.59462 0.26097
  endloop
 endfacet
 facet normal -1 0 0
  outer loop
   vertex 6 1.29598 0.855658
   vertex 6 1.26213 0.776409
   vertex 6 1.22024 0.846017
  endloop
 endfacet
 facet normal -1 0 0
  outer loop
   vertex 6 0.200543 0.416233
   vertex 6 0.286287 0.414675
   vertex 6 0.233484 0.351953
  endloop
 endfacet
 facet normal -1 0 0
  outer loop
   vertex 6 1.02345 0.844439
   vertex 6 1.09007 0.798379
   vertex 6 1.02888 0.768898
  endloop
 endfacet
 facet normal -1 0 0
  outer loop
   vertex 6 1.91533 0.085344
   vertex 6 1.8589 0.169658
   vertex 6 1.93364 0.159034
  endloop
 endfacet
 facet normal -1 0 0
  outer loop
   vertex 6 1.52752 0.227863
   vertex 6 1.60268 0.167627
   vertex 6 1.53445 0.15458
  endloop
 endfacet
 facet normal -1 0 -0
  outer loop
   vertex 6 1.15913 0.390287
   vertex 6 1.19297 0.318603
   vertex 6 1.10726 0.330663
  endloop
 endfacet
 facet normal -1 0 0
  outer loop
   vertex 6 1.4283 0.569513
   vertex 6 1.34355 0.604404
   vertex 6 1.39809 0.661437
  endloop
 endfacet
 facet normal -1 0 0
  outer loop
   vertex 6 1.26213 0.776409
   vertex 6 1.17045 0.78839
   vertex 6 1.22024 0.846017
  endloop
 endfacet
 facet normal -1 -0 0
  outer loop
   vertex 6 1.70208 0.795371
   vertex 6 1.648 0.738679
   vertex 6 1.62743 0.838036
  endloop
 endfacet
 facet normal -1 0 -0
  outer loop
   vertex 6 1.34791 0.727608
   vertex 6 1.39809 0.661437
   vertex 6 1.32603 0.670489
  endloop
 endfacet
 facet normal -1 0 -0
  outer loop
   vertex 6 1.86375 0.878471
   vertex 6 1.92487 0.841765
   vertex 6 1.8502 0.806801
  endloop
 endfacet
 facet normal -1 0 0
  outer loop
   vertex 6 1.92487 0.841765
   vertex 6 1.9195 0.745801
   vertex 6 1.8502 0.806801
  endloop
 endfacet
 facet normal -1 0 0
  outer loop
   vertex 6 1.24913 0.073999
   vertex 6 1.21143 0.141325
   vertex 6 1.28516 0.150098
  endloop
 endfacet
 facet normal -1 0 0
  outer loop
   vertex 6 0.305729 0.579083
   vertex 6 0.385751 0.650188
   vertex 6 0.385229 0.558911
  endloop
 endfacet
 facet normal -1 -0 0
  outer loop
   vertex 6 1.19297 0.318603
   vertex 6 1.13745 0.260912
   vertex 6 1.10726 0.330663
  endloop
 endfacet
 facet normal -1 -0 0
  outer loop
   vertex 6 1.92329 0.923298
   vertex 6 1.86375 0.878471
   vertex 6 1.85107 0.941027
  endloop
 endfacet
 facet normal -1 0 -0
  outer loop
   vertex 6 1.9 1
   vertex 6 1.92329 0.923298
   vertex 6 1.85107 0.941027
  endloop
 endfacet
 facet normal -1 0 -0
  outer loop
   vertex 6 0.643924 0.401826
   vertex 6 0.682929 0.337488
   vertex 6 0.59461 0.33649
  endloop
 endfacet
 facet normal -1 0 0
  outer loop
   vertex 6 0.682929 0.337488
   vertex 6 0.634588 0.254857
   vertex 6 0.59461 0.33649
  endloop
 endfacet
 facet normal -1 0 0
  outer loop
   vertex 6 1.09007 0.798379
   vertex 6 1.08902 0.715745
   vertex 6 1.02888 0.768898
  endloop
 endfacet
 facet normal -1 -0 0
  outer loop
   vertex 6 1.39809 0.661437
   vertex 6 1.34355 0.604404
   vertex 6 1.32603 0.670489
  endloop
 endfacet
 facet normal -1 0 -0
  outer loop
   vertex 6 1.68717 0.887532
   vertex 6 1.70208 0.795371
   vertex 6 1.62743 0.838036
  endloop
 endfacet
endsolid Extrude(Meshed)
